PathFileType	4	(X/Y/Z)	RUN4
DataRate	CameraRate	NumFrames	NumMarkers	Units	OrigDataRate	OrigDataStartFrame	OrigNumFrames
100	100	8	42	mm	100	405	128
Frame#	Time	LPSI			RPSI			RTH2			RTH3			LTH1			LTH2			LTH3			RTB1			RTB2			LTB1			LTB2			RCAL			RTOE			RMT5			LCAL			LTOE			LMT5			LACR			RACR			CLAV			C7			RUA1			RUA2			RUA3			RLEL			LUA1			LUA2			LUA3			LLEL			LMEL			RFAsuperior			RFAulna			LFAsuperior			LFAradius			LFAulna			RASI			RTB3			LTB3			RMEL			RFAradius			RTH1			LASI		
		X1	Y1	Z1	X2	Y2	Z2	X3	Y3	Z3	X4	Y4	Z4	X5	Y5	Z5	X6	Y6	Z6	X7	Y7	Z7	X8	Y8	Z8	X9	Y9	Z9	X10	Y10	Z10	X11	Y11	Z11	X12	Y12	Z12	X13	Y13	Z13	X14	Y14	Z14	X15	Y15	Z15	X16	Y16	Z16	X17	Y17	Z17	X18	Y18	Z18	X19	Y19	Z19	X20	Y20	Z20	X21	Y21	Z21	X22	Y22	Z22	X23	Y23	Z23	X24	Y24	Z24	X25	Y25	Z25	X26	Y26	Z26	X27	Y27	Z27	X28	Y28	Z28	X29	Y29	Z29	X30	Y30	Z30	X31	Y31	Z31	X32	Y32	Z32	X33	Y33	Z33	X34	Y34	Z34	X35	Y35	Z35	X36	Y36	Z36	X37	Y37	Z37	X38	Y38	Z38	X39	Y39	Z39	X40	Y40	Z40	X41	Y41	Z41	X42	Y42	Z42	

405	  4.050000	781.433758	1069.864708	-408.924750	791.723642	1059.844503	-296.015831	839.617492	728.686816	-207.518412	897.258105	578.242177	-210.307884	881.219359	886.511539	-544.974334	863.959316	724.070518	-487.929732	956.122125	612.248649	-486.144207	786.748845	429.186062	-273.310863	744.594597	514.101915	-200.746518	1029.088820	400.030717	-403.694121	917.450189	313.415133	-444.841411	491.083292	606.695721	-270.350397	432.674451	371.539969	-291.265033	412.722931	422.663193	-200.626986	772.068735	101.981126	-334.121229	1009.726392	 72.759143	-336.349923	954.120058	 37.272892	-429.287717	923.398334	1480.938116	-536.698556	975.711777	1467.800753	-213.412792	1018.471002	1434.983040	-350.308209	892.092627	1507.308776	-374.400138	861.286254	1394.870225	-137.383460	896.446698	1332.980579	-102.471476	821.028948	1280.696014	-46.554050	781.503937	1236.655859	 -7.867329	814.939897	1389.802747	-579.776094	833.392465	1309.425044	-605.774859	752.060218	1253.083107	-623.206312	723.627772	1192.340028	-641.973725	719.778616	1170.968879	-553.751391	847.721219	1145.039088	-14.825739	924.991301	1014.115018	-63.778661	783.626449	1131.387408	-645.698399	961.760240	1114.868218	-576.896440	943.134450	1053.347870	-607.719226	954.506729	990.503850	-243.939924	601.065271	474.159612	-274.155622	936.607312	201.417051	-374.769138	757.627649	1203.384976	-88.589736	950.131132	1037.545376	-122.588501	881.508149	874.026557	-199.572169	933.721858	1012.532280	-492.650071	
406	  4.060000	780.294277	1068.358231	-410.834060	788.505530	1057.996562	-297.957915	847.806436	725.841703	-206.364906	916.207607	579.480008	-208.595896	880.638059	883.531653	-543.614002	854.448457	721.736815	-486.448725	942.229377	605.778388	-483.289797	814.148838	427.884975	-273.161640	768.760615	509.645217	-197.883317	1005.567316	390.189390	-400.819370	890.782618	308.404887	-442.675348	510.833021	597.843433	-269.423845	464.037773	359.917607	-287.959710	444.750090	410.401929	-196.404689	733.057514	102.865444	-334.078534	970.441700	 71.482467	-335.943324	914.697154	 37.545993	-430.116238	924.478361	1477.453461	-537.077185	972.860629	1464.806749	-212.578977	1017.385771	1432.063131	-348.874156	891.241064	1504.775362	-374.470764	855.828206	1393.911702	-137.961928	888.842068	1332.383331	-102.291332	809.890277	1283.616355	-47.539053	768.875413	1240.500507	 -8.876358	818.449285	1381.643867	-579.086263	840.803804	1302.826595	-607.352004	762.261168	1243.326290	-627.151100	737.731440	1181.312940	-647.305805	731.864310	1159.506687	-559.260986	832.171746	1146.026865	-12.481529	904.345571	1010.668354	-57.233351	799.676181	1121.860458	-649.537971	975.238212	1106.184148	-575.306884	957.704650	1044.637864	-606.672930	950.432287	989.127384	-242.925979	626.712994	468.773024	-273.704217	902.803459	196.467073	-372.764151	745.944081	1206.427611	-89.036019	932.874105	1031.711598	-115.875181	879.981180	872.822481	-198.177117	932.638194	1010.948805	-494.409661	
407	  4.070000	779.211133	1068.835700	-412.968256	785.261641	1057.813334	-300.245001	855.882099	725.537765	-205.448416	935.456854	583.918134	-207.328896	879.725053	881.641680	-542.398048	844.226243	721.024993	-486.602954	927.178950	600.662840	-481.304492	842.354535	428.233194	-272.825935	793.040223	506.092392	-196.421449	980.013195	382.519526	-397.812610	862.433899	305.815317	-440.732230	529.181007	586.022799	-267.834405	497.482833	345.588517	-285.808066	477.486433	394.678218	-193.284778	693.979270	104.560650	-333.767944	930.922794	 70.833184	-335.438818	874.793623	 38.152113	-430.397263	926.631288	1476.139144	-536.874769	969.501780	1464.078312	-211.560712	1016.006540	1430.735451	-347.101271	889.835021	1503.437795	-374.702858	849.491634	1395.507836	-138.890744	880.530114	1334.686013	-101.903807	798.742480	1289.193445	-48.567656	756.017350	1246.977166	-10.039988	821.788976	1377.402791	-579.192355	847.319798	1300.219565	-609.200604	771.534697	1237.936001	-630.007864	750.622050	1174.839389	-651.317784	743.007079	1152.611509	-563.351739	816.704822	1150.500116	-10.916642	885.295936	1012.199455	-53.145348	814.862424	1117.432548	-652.043557	988.149669	1104.120652	-573.066646	972.445711	1042.494970	-605.340183	946.669397	988.630360	-241.234887	652.207710	462.453856	-273.365840	868.333140	193.641393	-371.116191	734.247166	1212.561398	-90.085465	917.460139	1032.067016	-110.759757	879.112544	873.163580	-195.069555	931.607308	1011.348164	-496.392336	
408	  4.080000	778.568026	1070.609640	-415.073407	782.462101	1059.097950	-302.522906	863.696071	727.786846	-204.936950	954.251021	591.488036	-206.537125	877.898320	880.598897	-541.921818	833.964090	721.390029	-488.178924	911.085175	597.114394	-480.167419	870.288186	430.702532	-272.265289	816.880241	504.462703	-195.846696	952.418681	377.027974	-395.268379	832.080180	305.516296	-439.456899	546.466617	571.125125	-265.675588	532.749505	329.094832	-284.459045	510.369416	376.096675	-191.266614	654.780875	107.380735	-333.750448	891.109880	 70.607909	-335.163333	834.202941	 38.349304	-429.800219	929.768485	1476.895496	-536.387499	965.344640	1465.797153	-210.523771	1014.410331	1431.285201	-345.102306	888.436821	1503.917139	-375.387895	842.293351	1399.532680	-140.472429	871.552861	1339.793990	-101.322418	787.633222	1296.925989	-49.584998	743.110839	1255.609131	-11.452350	826.079174	1376.749826	-580.768066	853.407683	1300.641369	-610.829362	779.502634	1236.559916	-631.807086	761.377550	1172.687644	-654.024130	752.323476	1149.968203	-566.187956	801.715475	1157.953963	-10.253679	868.509216	1018.194071	-51.310186	827.783494	1117.324908	-653.074397	999.491853	1109.262350	-570.370982	986.453020	1047.140012	-603.114381	943.151228	989.091973	-239.405325	678.022013	455.109356	-272.712487	832.976181	192.769993	-370.305843	722.809497	1221.206459	-91.900902	904.228264	1037.985955	-107.034079	879.000574	874.931335	-191.968285	931.011558	1013.045529	-498.338245	
409	  4.090000	778.877000	1073.102889	-417.237699	780.465992	1061.737002	-304.683447	871.292185	732.366042	-205.205277	971.720402	601.902224	-206.221703	875.640004	880.320257	-541.733463	823.441391	722.646713	-490.154881	893.384055	595.050122	-479.447333	896.910954	435.245267	-271.606826	839.648142	505.186658	-195.679679	922.785671	373.177596	-393.737174	799.943818	306.363836	-439.039936	563.153816	553.158514	-263.162131	569.730376	311.044781	-283.862945	543.602738	355.151610	-190.278917	615.639678	111.685088	-334.674605	851.076115	 70.397429	-335.231860	793.283039	 38.190149	-429.024009	933.461812	1479.496510	-535.809527	960.408210	1469.756621	-209.599398	1012.672651	1433.891171	-342.915714	887.329208	1506.323620	-376.347798	834.624617	1405.658016	-142.659721	862.229672	1347.138052	-100.787050	776.602796	1306.287708	-50.721473	730.322746	1265.901222	-13.243574	831.504272	1379.046187	-583.361220	859.523772	1303.159144	-611.734030	786.307651	1238.401614	-632.962553	770.012915	1173.992374	-655.736657	759.648576	1150.707105	-568.115620	787.662319	1167.871223	-10.577337	854.104394	1027.634608	-51.142378	838.344774	1120.725530	-652.947316	1008.871083	1120.689908	-567.429444	999.073680	1057.541141	-599.587771	940.050728	991.060227	-237.987527	705.044967	446.815589	-271.595457	796.763750	193.194655	-370.300310	711.461512	1231.595375	-94.196673	892.878722	1048.126379	-104.463019	879.244294	878.601017	-190.008229	931.367313	1015.463446	-500.340632	
410	  4.100000	780.268485	1076.237565	-419.555707	779.345565	1065.698396	-306.761715	878.798503	738.882455	-206.324978	987.224592	614.538324	-206.291053	873.722051	881.013336	-541.135166	812.327588	725.382859	-491.576551	874.003244	594.675052	-478.762494	921.840904	441.186787	-270.876957	860.847536	507.669155	-195.798892	891.713339	371.083968	-393.251689	766.967959	308.174689	-439.476881	579.773706	532.298122	-260.712612	608.445296	292.058971	-284.124401	577.971492	332.445529	-190.155468	577.096709	118.116505	-336.952431	811.014030	 69.971199	-335.550421	752.522708	 38.159724	-428.774621	937.174499	1483.637058	-535.023083	954.974305	1475.436790	-208.761027	1010.846598	1438.467023	-340.490376	886.387733	1510.268445	-377.210965	826.986613	1413.451401	-145.179139	852.954802	1355.939471	-100.538645	765.772278	1316.770153	-52.188741	717.787872	1277.387556	-15.547994	837.325084	1383.506163	-586.002576	865.680780	1307.252639	-611.844327	792.515051	1242.469915	-634.045517	777.197781	1177.753582	-656.887723	765.400075	1154.031190	-569.420024	774.764455	1179.668618	-11.847545	841.862563	1039.418482	-51.971064	847.363304	1127.119269	-652.182621	1016.379317	1136.532237	-564.301351	1010.138270	1072.092005	-594.984451	937.673289	994.918443	-237.321191	733.443108	437.949827	-270.348647	760.368368	194.954613	-371.043254	700.195374	1243.027801	-96.839203	882.892577	1061.024531	-102.922021	879.314997	884.389402	-189.158082	932.807595	1018.522666	-502.499127	
411	  4.110000	782.547041	1080.216256	-421.946033	779.041616	1070.912022	-308.795844	886.200532	746.893178	-207.815213	1000.623064	628.576965	-206.572430	872.590107	882.850576	-539.939990	800.818131	730.278524	-492.136105	853.750144	596.433438	-478.070217	945.418796	447.663424	-270.041216	880.279467	510.685874	-196.384648	860.213413	371.426291	-393.528495	734.204161	311.899451	-440.705119	596.907802	508.820068	-258.868632	648.968149	272.745266	-285.133476	614.217062	308.793875	-190.652067	539.931047	127.341201	-340.548334	771.153784	 69.223350	-335.931353	712.060034	 38.429123	-428.947487	940.497853	1489.039095	-533.775600	949.437841	1482.237641	-207.879260	1008.958655	1444.697238	-337.807719	885.380277	1515.309340	-377.708526	819.772160	1422.490548	-147.731261	844.030066	1365.517213	-100.659669	755.320325	1327.899593	-54.104468	705.632005	1289.597696	-18.450409	842.654707	1389.410957	-587.962275	871.544012	1312.740324	-611.497223	798.674965	1247.940519	-635.432531	783.647170	1183.200557	-657.883875	770.095503	1159.423132	-570.321466	762.911850	1192.645083	-13.906906	831.461484	1052.629492	-53.312534	855.582665	1136.009441	-651.187340	1022.205785	1154.887870	-560.919931	1019.787478	1089.331491	-589.954826	936.211321	1000.588637	-237.375306	762.048004	428.788280	-269.484203	724.753771	198.711655	-372.634116	689.422074	1255.025352	-100.045809	873.890339	1075.519869	-102.355845	878.776965	891.879828	-188.596769	935.136137	1022.425284	-504.732269	
412	  4.120000	785.528448	1085.116345	-424.266003	779.515091	1077.211381	-310.784993	893.248081	755.995832	-208.981168	1012.171842	643.263578	-206.909476	872.306336	885.738617	-538.457192	789.540748	737.407383	-492.148450	833.808771	600.607739	-477.684783	968.153705	454.150095	-269.266739	898.034224	513.106850	-197.593146	829.257948	374.630390	-394.453516	702.364650	318.396745	-442.678805	615.166195	483.023271	-258.121089	691.349393	253.695980	-286.415952	652.589582	285.081580	-191.523273	504.932497	139.556506	-345.020751	731.712830	 68.090727	-336.251696	671.805693	 38.847654	-429.048665	943.269841	1495.540252	-532.025451	944.162942	1489.690873	-206.866471	1007.032349	1452.150949	-334.975345	884.248319	1521.219904	-377.765461	813.192625	1432.415780	-150.127852	835.636162	1375.441638	-101.105541	745.411956	1339.314454	-56.455149	694.006872	1302.099146	-21.957383	847.081564	1396.272153	-589.064167	876.826735	1319.509838	-611.088906	804.929861	1254.398998	-637.125710	789.728424	1189.863148	-659.022569	774.097733	1166.397486	-571.118252	751.878025	1206.114357	-16.555534	822.581551	1066.579509	-54.963629	863.190257	1146.674848	-650.174326	1026.447549	1174.418238	-557.257935	1028.127226	1108.218277	-584.999296	935.685953	1007.728034	-237.743422	789.142382	419.074135	-269.203231	690.644281	204.931948	-375.063200	679.570494	1267.340258	-104.012361	865.713813	1090.822273	-102.665615	877.508371	900.442656	-187.508823	938.167138	1027.249063	-506.894991	
